<svg width="150" height="30" viewBox="0 0 150 30" fill="none" xmlns="http://www.w3.org/2000/svg">
<path d="M9.41489 30L0 0.00588516H6.54255L12.2872 18.2563L17.7128 0.00588516H23.2979L28.4043 18.2563L34.3085 0.00588516H40.8511L30.9574 30H25.6915L20.4255 11.4322L14.8404 30H9.41489Z" fill="white"/>
<path d="M45.1596 5.87775V0.00588516H64.7872V5.87775H45.1596Z" fill="white"/>
<path d="M45.1596 17.9389V12.3844H64.7872V17.9389H45.1596Z" fill="white"/>
<path d="M64.7872 24.4455H45.1596V30H64.7872V24.4455Z" fill="white"/>
<path d="M99.2553 5.87775V0.00588516H118.723V5.87775H99.2553Z" fill="white"/>
<path d="M118.723 12.2257H99.2553V18.0976H118.723V12.2257Z" fill="white"/>
<path d="M118.723 24.4455H99.2553V30H118.723V24.4455Z" fill="white"/>
<path d="M129.255 30H122.074L132.128 15.241L122.074 0.00588516H129.255L136.117 10.0039L142.979 0.00588516H150L129.255 30Z" fill="white"/>
<path d="M145.213 22.6998H138.032L142.979 30H150L145.213 22.6998Z" fill="white"/>
<path fill-rule="evenodd" clip-rule="evenodd" d="M71.4894 30V0.00588516H81.8617C85.2128 -0.0999142 91.9149 1.18026 91.9149 7.14734C91.9149 11.337 90.2128 13.5482 89.3617 14.1301C90.6383 14.6062 93.1915 16.7645 93.1915 21.589C93.1915 27.6195 89.2021 30 81.8617 30H71.4894ZM77.5532 24.4455V17.6215H82.5C84.5745 17.6215 86.9681 17.9389 86.9681 21.2716C86.9681 23.9377 83.9894 24.4984 82.5 24.4455H77.5532ZM77.5532 11.7496V5.87775H82.1808C82.9787 5.87775 85.8511 5.87775 85.8511 8.89303C85.8511 11.3053 83.4043 11.8025 82.1808 11.7496H77.5532Z" fill="white"/>
</svg>
